<svg version="1.0" xmlns="http://www.w3.org/2000/svg" width="277.333" height="297.333" viewBox="0 0 208 223"><g fill="#fff"><path d="M85.8 7.5c-13 3.2-29.9 13.2-43.2 25.6C17.5 56.5 3.6 91.3 6.9 122c3.7 33.9 23.8 58.2 54.6 66.1 20 5.1 50.1 1 75-10.2l5-2.2-10.5-1.2c-13.6-1.6-21.8-3.7-30.5-7.9-13-6.2-20.5-13.7-31.3-31.6-8.6-14.3-13.1-17.9-23.7-18.9l-6-.6 4.5-4.9c5.4-5.8 14.9-12.8 21.4-15.5 29.3-12.6 64.9 9.5 87.6 54.3 9.3 18.3 16 42.5 16 57.7 0 3.3.4 5.9.8 5.9.5 0 3.8-3 7.4-6.8 13.8-14.2 20-28.3 20.1-45.2.1-11.4-1.8-19.5-7.2-30.5-10.3-21-28.8-37.8-53.3-48.6-21-9.2-29.2-18.4-25.3-28.5 1.2-3.3 2.8-5.1 6-6.9 7.7-4.5 14.6-4.3 26.9 1 1.7.8 1.9.5 1.3-2.6-1.5-7.3-6.9-16.3-14.6-24C117.8 7.6 103.3 3.3 85.8 7.5zM94 24c2.8 2.8 2.7 8.4-.2 10.4-4.9 3.5-11.1.4-11.1-5.4 0-6.1 7.1-9.2 11.3-5z"/><path d="M76 102c-4.1 4.1-1.2 12 4.5 12 3.1 0 7.5-4.1 7.5-7 0-2.9-4.4-7-7.5-7-1.4 0-3.4.9-4.5 2z"/></g></svg>